<svg xmlns="http://www.w3.org/2000/svg" xmlns:xlink="http://www.w3.org/1999/xlink" viewBox="0,0,256,256" width="100px" height="100px" fill-rule="nonzero"><g fill="none" fill-rule="nonzero" stroke="none" stroke-width="none" stroke-linecap="none" stroke-linejoin="none" stroke-miterlimit="10" stroke-dasharray="" stroke-dashoffset="0" font-family="none" font-weight="none" font-size="none" text-anchor="none" style="mix-blend-mode: normal"><g transform="scale(4,4)"><ellipse cx="32" cy="61" rx="28" ry="3" fill="#283f41" stroke="none" stroke-width="1" stroke-linecap="butt" stroke-linejoin="miter" opacity="0.3"></ellipse><path d="M18.998,15c-9.39,0.022 -16.984,7.652 -16.962,17.042c0.022,9.359 7.603,16.94 16.962,16.962c9.39,-0.022 16.984,-7.652 16.962,-17.042c-0.022,-9.359 -7.603,-16.94 -16.962,-16.962z" fill="#428ca8" stroke="none" stroke-width="1" stroke-linecap="butt" stroke-linejoin="miter"></path><path d="M10.531,23.535c2.262,-2.271 5.272,-3.527 8.479,-3.535c2.503,-0.006 4.554,-1.856 4.914,-4.258c-1.559,-0.476 -3.212,-0.738 -4.926,-0.742c-9.39,0.022 -16.984,7.652 -16.962,17.042c0.004,1.714 0.267,3.366 0.742,4.924c2.412,-0.362 4.264,-2.426 4.258,-4.936c-0.008,-3.206 1.234,-6.222 3.495,-8.495z" fill="#ffffff" stroke="none" stroke-width="1" stroke-linecap="butt" stroke-linejoin="miter" opacity="0.3"></path><path d="M35.96,31.962c-0.004,-1.714 -0.267,-3.366 -0.742,-4.924c-2.412,0.362 -4.264,2.426 -4.258,4.936c0.008,3.206 -1.233,6.223 -3.495,8.495c-2.262,2.271 -5.272,3.527 -8.479,3.535c-2.503,0.006 -4.554,1.856 -4.914,4.258c1.559,0.476 3.212,0.738 4.926,0.742c9.39,-0.022 16.984,-7.652 16.962,-17.042z" fill="#283f41" stroke="none" stroke-width="1" stroke-linecap="butt" stroke-linejoin="miter" opacity="0.15"></path><path d="M45.5,16c-4.152,0.022 -7.51,7.203 -7.5,16.041c0.01,8.807 3.362,15.941 7.5,15.963c4.152,-0.022 7.51,-7.203 7.5,-16.041c-0.01,-8.807 -3.362,-15.942 -7.5,-15.963z" fill="#428ca8" stroke="none" stroke-width="1" stroke-linecap="butt" stroke-linejoin="miter"></path><path d="M58.5,17c-1.933,-0.021 -3.504,6.679 -3.509,14.965c-0.005,8.285 1.558,15.019 3.491,15.039c0.006,0 0.012,0 0.017,0c1.933,0.021 3.504,-6.679 3.509,-14.965c0.006,-8.285 -1.558,-15.018 -3.491,-15.039c-0.005,0 -0.011,0 -0.017,0z" fill="#428ca8" stroke="none" stroke-width="1" stroke-linecap="butt" stroke-linejoin="miter"></path><path d="M6.932,26.007c0.64,-1.289 1.491,-2.48 2.536,-3.529c1.048,-1.053 2.239,-1.911 3.528,-2.558" fill="none" stroke="#ffffff" stroke-width="3" stroke-linecap="round" stroke-linejoin="round"></path></g></g></svg>